<?xml version="1.0" standalone="no"?>
<!DOCTYPE svg PUBLIC "-//W3C//DTD SVG 20010904//EN"
 "http://www.w3.org/TR/2001/REC-SVG-20010904/DTD/svg10.dtd">
<svg version="1.0" xmlns="http://www.w3.org/2000/svg"
 width="200.000000pt" height="200.000000pt" viewBox="0 0 200.000000 200.000000"
 preserveAspectRatio="xMidYMid meet">
<metadata>
Created by potrace 1.16, written by Peter Selinger 2001-2019
</metadata>
<g transform="translate(0.000000,200.000000) scale(0.100000,-0.100000)"
fill="#000000" stroke="none">
<path d="M808 1975 c-261 -50 -523 -229 -657 -450 -49 -81 -106 -220 -127
-310 -28 -117 -25 -350 5 -459 93 -343 341 -603 677 -709 166 -53 390 -55 552
-6 117 36 261 112 352 187 149 123 252 274 314 461 85 259 67 500 -59 756
-122 249 -341 429 -620 511 -114 33 -316 42 -437 19z m290 -35 c355 -45 647
-280 777 -625 111 -297 47 -672 -158 -915 -128 -152 -262 -243 -452 -307 -110
-37 -110 -37 -280 -37 -165 0 -173 1 -265 32 -294 101 -498 288 -605 554 -52
132 -67 212 -67 363 0 144 16 225 72 358 109 262 324 456 600 541 136 43 243
53 378 36z"/>
<path d="M881 1770 c-191 -27 -376 -131 -493 -278 -185 -233 -227 -532 -112
-805 29 -69 82 -157 95 -157 5 0 20 23 34 51 84 164 295 291 625 374 l125 32
-160 7 c-267 12 -358 42 -412 134 -22 37 -28 59 -27 102 4 215 289 415 662
464 92 12 95 14 67 25 -108 45 -287 67 -404 51z"/>
<path d="M1450 1395 c-74 -41 -138 -74 -142 -75 -20 -1 -4 32 37 78 l46 50
-53 7 c-89 11 -280 -29 -398 -83 -135 -61 -244 -151 -238 -195 7 -49 87 -63
418 -73 135 -3 253 -11 263 -16 22 -12 22 -40 -3 -87 -27 -54 -69 -76 -180
-95 -149 -27 -233 -52 -333 -102 -117 -59 -181 -101 -235 -154 -89 -87 -105
-149 -52 -194 39 -32 83 -41 195 -40 210 2 424 88 627 254 40 33 74 57 76 55
9 -9 -21 -114 -51 -174 -37 -76 -126 -168 -210 -219 -30 -18 -97 -47 -148 -64
-141 -46 -142 -47 -66 -47 278 -3 558 175 682 432 57 120 78 229 72 377 -3 91
-11 144 -27 195 -36 113 -109 246 -134 244 -6 0 -72 -33 -146 -74z"/>
</g>
</svg>
